<svg xmlns="http://www.w3.org/2000/svg" viewBox="0 0 600 600">
<defs>
<linearGradient id="bg" x1="0%" y1="0%" x2="100%" y2="100%">
<stop offset="0%" stop-color="#111111"/>
<stop offset="55%" stop-color="#0a0a0a"/>
<stop offset="100%" stop-color="#050505"/>
</linearGradient>
<linearGradient id="grn" x1="0%" y1="0%" x2="100%" y2="100%">
<stop offset="0%" stop-color="#39ff6a"/>
<stop offset="100%" stop-color="#0fa845"/>
</linearGradient>
<radialGradient id="glow" cx="50%" cy="45%" r="60%">
<stop offset="0%" stop-color="#22c55e" stop-opacity="0.35"/>
<stop offset="100%" stop-color="#22c55e" stop-opacity="0"/>
</radialGradient>
</defs>
<rect width="600" height="600" fill="url(#bg)"/>
<circle cx="300" cy="270" r="230" fill="url(#glow)"/>
<g stroke="#1a2e1f" stroke-width="1">
<line x1="0" y1="500" x2="600" y2="500"/>
<line x1="0" y1="460" x2="600" y2="460"/>
</g>

<g transform="translate(90,250)">
<path d="M10 100 Q0 60 40 55 L120 40 Q160 10 220 20 L360 45 Q420 55 420 90 L420 110 L10 110 Z" fill="#111" stroke="url(#grn)" stroke-width="4"/>
<path d="M120 40 Q160 70 230 60 Q300 52 360 45" fill="none" stroke="url(#grn)" stroke-width="3"/>
<path d="M60 60 L90 95 M100 55 L130 95 M140 50 L170 95 M180 47 L210 95 M220 47 L250 95" stroke="#39ff6a" stroke-width="3" opacity="0.7"/>
<rect x="10" y="108" width="410" height="18" rx="9" fill="url(#grn)"/>
</g>
<text x="300" y="565" font-family="Arial, sans-serif" font-size="22" font-weight="700" letter-spacing="6" fill="#39ff6a" text-anchor="middle">VORTEX 7</text>
</svg>